name c:\Users\T11648sTb\Documents\VSCODE\Pred_Sim_Sprinting\Pred_Sim_Sprinting\MainFunctions\ExperimentalData\IK_Splined\Splined_100_meshInts_p02_maxVel_01.mot
datacolumns 38
datarows 12
range 0.22569697 0.23246222
endheader
                time	/jointset/ground_pelvis/pelvis_tilt/value	/jointset/ground_pelvis/pelvis_list/value	/jointset/ground_pelvis/pelvis_rotation/value	/jointset/ground_pelvis/pelvis_tx/value	/jointset/ground_pelvis/pelvis_ty/value	/jointset/ground_pelvis/pelvis_tz/value	/jointset/hip_r/hip_flexion_r/value	/jointset/hip_r/hip_adduction_r/value	/jointset/hip_r/hip_rotation_r/value	/jointset/knee_r/knee_angle_r/value	/jointset/ankle_r/ankle_angle_r/value	/jointset/subtalar_r/subtalar_angle_r/value	/jointset/mtp_r/mtp_angle_r/value	/jointset/hip_l/hip_flexion_l/value	/jointset/hip_l/hip_adduction_l/value	/jointset/hip_l/hip_rotation_l/value	/jointset/knee_l/knee_angle_l/value	/jointset/ankle_l/ankle_angle_l/value	/jointset/subtalar_l/subtalar_angle_l/value	/jointset/mtp_l/mtp_angle_l/value	/jointset/back/lumbar_extension/value	/jointset/back/lumbar_bending/value	/jointset/back/lumbar_rotation/value	/jointset/acromial_r/arm_flex_r/value	/jointset/acromial_r/arm_add_r/value	/jointset/acromial_r/arm_rot_r/value	/jointset/elbow_r/elbow_flex_r/value	/jointset/radioulnar_r/pro_sup_r/value	/jointset/radius_hand_r/wrist_flex_r/value	/jointset/radius_hand_r/wrist_dev_r/value	/jointset/acromial_l/arm_flex_l/value	/jointset/acromial_l/arm_add_l/value	/jointset/acromial_l/arm_rot_l/value	/jointset/elbow_l/elbow_flex_l/value	/jointset/radioulnar_l/pro_sup_l/value	/jointset/radius_hand_l/wrist_flex_l/value	/jointset/radius_hand_l/wrist_dev_l/value	
          0.22569697	         -1.61892706	          2.61382652	          5.48365478	         -0.18507773	          1.00074337	          0.31098358	        -10.03685518	         -0.88491874	        -10.44086736	        -83.96131068	        -36.04955156	        -26.19089317	         -8.34683002	         52.95642945	          6.11894104	          6.21684611	        -24.95315408	        -10.89544832	         -4.20216620	          6.29882000	        -11.74349544	        -13.73816795	          3.03941843	         11.13339990	        -20.99129847	         13.58430111	        149.73837241	         56.79667954	        -20.92903849	         15.14514774	        -58.29409623	         -6.90192977	        -45.93020345	         79.86624453	         61.37995125	          9.32265241	         24.95206093	
          0.22604428	         -1.58338135	          2.58053705	          5.52917405	         -0.18178145	          1.00084731	          0.31099781	         -9.89904628	         -0.83813683	        -10.47132400	        -84.32304807	        -35.98626624	        -26.18758221	         -8.33143185	         52.78133261	          6.07662072	          6.13637146	        -24.79459530	        -10.94989982	         -4.19187462	          6.28655236	        -11.86261836	        -13.71108684	          3.10145645	         10.70390906	        -20.99239107	         13.19664390	        149.67217181	         56.77088412	        -20.96719804	         15.17670385	        -58.05098399	         -7.02577762	        -45.72967303	         80.01543852	         61.41127077	          9.33902622	         24.97921949	
          0.22714166	         -1.47020521	          2.48188204	          5.67606039	         -0.17137512	          1.00116501	          0.31103605	         -9.46028471	         -0.69866823	        -10.57255030	        -85.46286823	        -35.78294941	        -26.15725712	         -8.26610699	         52.23340207	          5.94929882	          5.86891533	        -24.31858314	        -11.11913810	         -4.16378226	          6.24459961	        -12.24143503	        -13.62784844	          3.29063676	          9.35388270	        -20.98177368	         11.96779326	        149.44300186	         56.68390690	        -21.08827891	         15.28373938	        -57.27607107	         -7.41751459	        -45.08080988	         80.47951002	         61.51136712	          9.39040193	         25.06597341	
          0.22793697	         -1.38722385	          2.41673255	          5.78532864	         -0.16384118	          1.00138492	          0.31105739	         -9.13934051	         -0.60595177	        -10.65092135	        -86.28590860	        -35.63277453	        -26.11815749	         -8.20388896	         51.84111642	          5.86334543	          5.66356846	        -23.99725991	        -11.23882904	         -4.14779701	          6.21133856	        -12.51824111	        -13.56985053	          3.42072457	          8.38355334	        -20.96098660	         11.07559341	        149.25702087	         56.61598666	        -21.17641888	         15.36832526	        -56.70826691	         -7.70128221	        -44.59648246	         80.80846976	         61.58470698	          9.42728155	         25.12965336	
          0.22795960	         -1.38484988	          2.41495878	          5.78847084	         -0.16362694	          1.00139105	          0.31105792	         -9.13017580	         -0.60342148	        -10.65321531	        -86.30928552	        -35.62847132	        -26.11685290	         -8.20194607	         51.83001319	          5.86098049	          5.65759560	        -23.98840892	        -11.24219461	         -4.14739784	          6.21035903	        -12.52614333	        -13.56823040	          3.42433361	          8.35606286	        -20.96023706	         11.05021444	        149.25147581	         56.61399762	        -21.17893013	         15.37081844	        -56.69203966	         -7.70934773	        -44.58253518	         80.81773339	         61.58680023	          9.42832625	         25.13147397	
          0.22830691	         -1.34831226	          2.38828994	          5.83693291	         -0.16033902	          1.00148420	          0.31106549	         -8.98927013	         -0.56534489	        -10.68888484	        -86.66785412	        -35.56221797	        -26.09556937	         -8.17096647	         51.65996474	          5.82524658	          5.56505048	        -23.85455890	        -11.29356920	         -4.14166371	          6.19509987	        -12.64762902	        -13.54357324	          3.47907211	          7.93494233	        -20.94764696	         10.66076781	        149.16455771	         56.58308772	        -21.21749951	         15.40969262	        -56.44245123	         -7.83307829	        -44.36729465	         80.95925359	         61.61896596	          9.44433061	         25.15947845	
          0.22940428	         -1.23161574	          2.31092188	          5.99284020	         -0.14995849	          1.00176729	          0.31108285	         -8.54137710	         -0.45458555	        -10.80729547	        -87.79739713	        -35.35057852	        -26.01394644	         -8.05956738	         51.12728991	          5.71942762	          5.26287305	        -23.45632166	        -11.45223534	         -4.12846671	          6.14425598	        -13.03369611	        -13.46828735	          3.64357334	          6.61579036	        -20.89479506	          9.43318161	        148.86726317	         56.48113790	        -21.33956761	         15.53993213	        -55.64788055	         -8.22276365	        -43.67343076	         81.39792314	         61.72081814	          9.49450348	         25.24860861	
          0.23019960	         -1.14577310	          2.26139429	          6.10842106	         -0.14244255	          1.00196166	          0.31108933	         -8.21437702	         -0.38356040	        -10.89863288	        -88.61270005	        -35.19521681	        -25.94280188	         -7.96708668	         50.74537664	          5.64957218	          5.03583740	        -23.19088737	        -11.56358951	         -4.12367468	          6.10508746	        -13.31549500	        -13.41622104	          3.75433925	          5.67174997	        -20.84453140	          8.54828393	        148.62963504	         56.40372973	        -21.42814216	         15.64130726	        -55.06662120	         -8.50353645	        -43.15802347	         81.70762187	         61.79455402	          9.53048897	         25.31372051	
          0.23022222	         -1.14331452	          2.26006570	          6.11174048	         -0.14222881	          1.00196706	          0.31108945	         -8.20504633	         -0.38165537	        -10.90130029	        -88.63585290	        -35.19077478	        -25.94064792	         -7.96432270	         50.73455984	          5.64767002	          5.02929266	        -23.18361843	        -11.56671099	         -4.12359808	          6.10394650	        -13.32353544	        -13.41477057	          3.75738198	          5.64505245	        -20.84295915	          8.52318929	        148.62259538	         56.40149001	        -21.43066244	         15.64427664	        -55.05002119	         -8.51149916	        -43.14321223	         81.71632965	         61.79664771	          9.53150808	         25.31557820	
          0.23056954	         -1.10545783	          2.24023020	          6.16290774	         -0.13894851	          1.00204895	          0.31109065	         -8.06163445	         -0.35322388	        -10.94272784	        -88.99095319	        -35.12244551	        -25.90675612	         -7.92102077	         50.56884699	          5.61906808	          4.92829108	        -23.07399055	        -11.61429586	         -4.12284144	          6.08625560	        -13.44711412	        -13.39271983	          3.80331553	          5.23640616	        -20.81785725	          8.13863226	        148.51256905	         56.36687422	        -21.46934762	         15.69044658	        -54.79478138	         -8.63353239	        -42.91485515	         81.84927187	         61.82874481	          9.54711891	         25.34412612	
          0.23166691	         -0.98434421	          2.18444692	          6.32717624	         -0.12859114	          1.00229602	          0.31108840	         -7.60633638	         -0.27352055	        -11.07964685	        -90.10918264	        -34.90492462	        -25.79059664	         -7.77416277	         50.04911775	          5.53612983	          4.60336787	        -22.75151368	        -11.76045701	         -4.12569191	          6.02829853	        -13.83944023	        -13.32569615	          3.93861715	          3.96039506	        -20.72691742	          6.93297303	        148.14021429	         56.25497077	        -21.59150088	         15.84356588	        -53.98322619	         -9.01638599	        -42.18134217	         82.26027545	         61.92945027	          9.59604022	         25.43465592	
          0.23246222	         -0.89506490	          2.15055336	          6.44864158	         -0.12109109	          1.00246390	          0.31108116	         -7.27445529	         -0.22554768	        -11.18469345	        -90.91594783	        -34.74593894	        -25.69944450	         -7.65927946	         49.67587071	          5.48318174	          4.36361998	        -22.54024734	        -11.86224965	         -4.13282993	          5.98451688	        -14.12543866	        -13.27964042	          4.02691344	          3.05115117	        -20.65042363	          6.07010703	        147.84624952	         56.17201728	        -21.67987095	         15.96135665	        -53.39048472	         -9.29081522	        -41.63890614	         82.54939613	         62.00147026	          9.63111094	         25.50048073	
